{
  "asset": {
    "generator": "Khronos glTF Blender I/O v1.6.16",
    "version": "2.0"
  },
  "scene": 0,
  "scenes": [
    {
      "name": "Scene",
      "nodes": [
        0
      ]
    }
  ],
  "nodes": [
    {
      "mesh": 0,
      "name": "sphere_gltf"
    }
  ],
  "materials": [
    {
      "doubleSided": true,
      "name": "reed_roof_03",
      "normalTexture": {
        "index": 0
      },
      "pbrMetallicRoughness": {
        "baseColorTexture": {
          "index": 1
        },
        "metallicFactor": 0,
        "metallicRoughnessTexture": {
          "index": 2
        }
      }
    }
  ],
  "meshes": [
    {
      "name": "Sphere.001",
      "primitives": [
        {
          "attributes": {
            "POSITION": 0,
            "NORMAL": 1,
            "TEXCOORD_0": 2
          },
          "indices": 3,
          "material": 0
        }
      ]
    }
  ],
  "textures": [
    {
      "sampler": 0,
      "source": 0
    },
    {
      "sampler": 0,
      "source": 1
    },
    {
      "sampler": 0,
      "source": 2
    }
  ],
  "images": [
    {
      "mimeType": "image/jpeg",
      "name": "reed_roof_03_nor_gl_4k",
      "uri": "textures/reed_roof_03_nor_gl_2k.jpg"
    },
    {
      "mimeType": "image/jpeg",
      "name": "reed_roof_03_diff_4k",
      "uri": "textures/reed_roof_03_diff_2k.jpg"
    },
    {
      "mimeType": "image/jpeg",
      "name": "reed_roof_03_rough_4k",
      "uri": "textures/reed_roof_03_rough_2k.jpg"
    }
  ],
  "accessors": [
    {
      "bufferView": 0,
      "componentType": 5126,
      "count": 53891,
      "max": [
        1.2452551126480103,
        1.2775964736938477,
        1.2445902824401855
      ],
      "min": [
        -1.2452551126480103,
        -1.284928798675537,
        -1.2445977926254272
      ],
      "type": "VEC3"
    },
    {
      "bufferView": 1,
      "componentType": 5126,
      "count": 53891,
      "type": "VEC3"
    },
    {
      "bufferView": 2,
      "componentType": 5126,
      "count": 53891,
      "type": "VEC2"
    },
    {
      "bufferView": 3,
      "componentType": 5123,
      "count": 322170,
      "type": "SCALAR"
    }
  ],
  "bufferViews": [
    {
      "buffer": 0,
      "byteLength": 646692,
      "byteOffset": 0
    },
    {
      "buffer": 0,
      "byteLength": 646692,
      "byteOffset": 646692
    },
    {
      "buffer": 0,
      "byteLength": 431128,
      "byteOffset": 1293384
    },
    {
      "buffer": 0,
      "byteLength": 644340,
      "byteOffset": 1724512
    }
  ],
  "samplers": [
    {
      "magFilter": 9729,
      "minFilter": 9987
    }
  ],
  "buffers": [
    {
      "byteLength": 2368852,
      "uri": "reed_roof_03.bin"
    }
  ]
}