{
  "asset": {
    "generator": "Khronos glTF Blender I/O v3.2.43",
    "version": "2.0"
  },
  "extensionsUsed": [
    "KHR_texture_transform"
  ],
  "extensionsRequired": [
    "KHR_texture_transform"
  ],
  "scene": 0,
  "scenes": [
    {
      "name": "Scene",
      "nodes": [
        0
      ]
    }
  ],
  "nodes": [
    {
      "mesh": 0,
      "name": "sphere_gltf"
    }
  ],
  "materials": [
    {
      "doubleSided": true,
      "name": "wood_planks_dirt",
      "normalTexture": {
        "extensions": {
          "KHR_texture_transform": {
            "offset": [
              0.5,
              0
            ]
          }
        },
        "index": 0
      },
      "pbrMetallicRoughness": {
        "baseColorTexture": {
          "extensions": {
            "KHR_texture_transform": {
              "offset": [
                0.5,
                0
              ]
            }
          },
          "index": 1
        },
        "metallicFactor": 0,
        "metallicRoughnessTexture": {
          "extensions": {
            "KHR_texture_transform": {
              "offset": [
                0.5,
                0
              ]
            }
          },
          "index": 2
        }
      }
    }
  ],
  "meshes": [
    {
      "name": "Sphere.001",
      "primitives": [
        {
          "attributes": {
            "POSITION": 0,
            "NORMAL": 1,
            "TEXCOORD_0": 2
          },
          "indices": 3,
          "material": 0
        }
      ]
    }
  ],
  "textures": [
    {
      "sampler": 0,
      "source": 0
    },
    {
      "sampler": 0,
      "source": 1
    },
    {
      "sampler": 0,
      "source": 2
    }
  ],
  "images": [
    {
      "mimeType": "image/jpeg",
      "name": "wood_planks_dirt_nor_gl",
      "uri": "textures/wood_planks_dirt_nor_gl_4k.jpg"
    },
    {
      "mimeType": "image/jpeg",
      "name": "wood_planks_dirt_diff",
      "uri": "textures/wood_planks_dirt_diff_4k.jpg"
    },
    {
      "mimeType": "image/jpeg",
      "name": "wood_planks_dirt_rough",
      "uri": "textures/wood_planks_dirt_arm_4k.jpg"
    }
  ],
  "accessors": [
    {
      "bufferView": 0,
      "componentType": 5126,
      "count": 53886,
      "max": [
        1.0036485195159912,
        1.0063666105270386,
        1.0045483112335205
      ],
      "min": [
        -1.0036488771438599,
        -1.0065250396728516,
        -1.00454843044281
      ],
      "type": "VEC3"
    },
    {
      "bufferView": 1,
      "componentType": 5126,
      "count": 53886,
      "type": "VEC3"
    },
    {
      "bufferView": 2,
      "componentType": 5126,
      "count": 53886,
      "type": "VEC2"
    },
    {
      "bufferView": 3,
      "componentType": 5123,
      "count": 322170,
      "type": "SCALAR"
    }
  ],
  "bufferViews": [
    {
      "buffer": 0,
      "byteLength": 646632,
      "byteOffset": 0
    },
    {
      "buffer": 0,
      "byteLength": 646632,
      "byteOffset": 646632
    },
    {
      "buffer": 0,
      "byteLength": 431088,
      "byteOffset": 1293264
    },
    {
      "buffer": 0,
      "byteLength": 644340,
      "byteOffset": 1724352
    }
  ],
  "samplers": [
    {
      "magFilter": 9729,
      "minFilter": 9987
    }
  ],
  "buffers": [
    {
      "byteLength": 2368692,
      "uri": "wood_planks_dirt.bin"
    }
  ]
}